<?xml version="1.0" encoding="utf-8"?>
<!-- Generator: Adobe Illustrator 24.0.0, SVG Export Plug-In . SVG Version: 6.00 Build 0)  -->
<svg version="1.1" id="Layer_1" xmlns="http://www.w3.org/2000/svg" xmlns:xlink="http://www.w3.org/1999/xlink" x="0px" y="0px"
	 viewBox="0 0 112 112" style="enable-background:new 0 0 112 112;" xml:space="preserve">
<style type="text/css">
	.st0{fill:#222331;}
	.st1{display:none;fill:#FFFFFF;}
	.st2{fill:#FAE785;}
	.st3{fill:#E7C540;}
	.st4{fill:#FDF8E5;}
</style>
<rect id="Rectangle_1" x="0" y="0" class="st0" width="112" height="112"/>
<circle class="st1" cx="56" cy="56" r="39.6"/>
<g>
	<path class="st2" d="M97.1,75.6C97.1,75.6,97.1,75.6,97.1,75.6C97.1,75.6,97.1,75.6,97.1,75.6C97.1,75.6,97.1,75.6,97.1,75.6
		C97,75.6,97,75.6,97.1,75.6C97,75.7,97,75.7,97,75.7c0,0,0,0,0,0c0,0,0,0,0,0c0,0,0,0,0,0.1c0,0,0,0,0,0c0,0,0,0.1-0.1,0.1
		c0,0,0,0,0,0c0,0-0.1,0.1-0.1,0.1c0,0,0,0,0,0c-37.7,19.4-57.3-6.4-60-10.2c-0.2-0.7-0.4-1.2-0.5-1.6c0,0-8.7-0.8-14.1,2.2
		c-6.6,3.7-7.2,8.9-7,9.9c0.2,1.3,1.7,1.9,3.8-0.1c2-2,4.3-4,9.2-3.1c4.9,0.9,7.4,4.8,9.4,7.2c2,2.4,11.1,11.5,25.4,12.6
		C77.1,94,89.9,86.9,97.1,75.6C97.1,75.6,97.1,75.6,97.1,75.6z"/>
	<path class="st3" d="M63.9,89.1C63.9,89.1,63.9,89.1,63.9,89.1c0.4,0,0.7,0.1,1,0.1c0.3,0,0.6,0.1,0.9,0.1c0.1,0,0.3,0,0.4,0
		c0.1,0,0.3,0,0.4,0c0.2,0,0.4,0,0.7,0c0,0,0.1,0,0.1,0c0.2,0,0.5,0,0.7,0c0,0,0.1,0,0.1,0c0.2,0,0.5,0,0.7,0c0.2,0,0.3,0,0.5,0
		c0.1,0,0.1,0,0.2,0c15.6-0.3,25.1-10.8,27.1-13.3c0,0,0,0,0,0c0,0,0.1-0.1,0.1-0.1c0,0,0,0,0,0c0,0,0-0.1,0.1-0.1c0,0,0,0,0,0
		c0,0,0,0,0-0.1c0,0,0,0,0,0c0,0,0,0,0,0c0,0,0,0,0,0c0,0,0,0,0,0c0,0,0,0,0,0c0,0,0,0,0,0c0,0,0,0,0,0c0,0,0,0,0,0l-13.7-4.7
		c-4.1,6.6-13.8,9.4-22.3,7.6c-8.5-1.8-13.2-7.1-13-11s3.7-6.2,6.5-6.8c2.8-0.6,3.2-1.3,2.8-2.4c-0.4-1-2.8-3.2-8.3-3
		c-7.9,0.2-12.9,8.9-12.9,8.9C37.4,68.1,43.7,86.3,63.9,89.1z"/>
	<g>
		<path class="st4" d="M28.4,61.2c0,0-1.6-9.8,2.5-22.1c2.1-6.1,6.5-10.9,10.2-13.6c3.2-2.4,8.4-3.2,8.5,0.1c0,3.3-3,3.9-6.4,11.8
			c-2.6,6-1.2,16.7-1.2,16.7s-1.3,0.7-3.7,2.6c-2.3,1.9-3.8,4-3.8,4S31.9,60.6,28.4,61.2z"/>
	</g>
	<path class="st2" d="M51.6,22c0.8,0.9,1.3,2.2,1.3,3.6c0,2.8-1.3,4.5-2.6,6.2c-1.1,1.5-2.5,3.3-4.1,7c-0.8,1.9-1.2,4.4-1.3,7
		c1.7-3.3,4.8-7.7,10.9-10.6c9.1-4.3,18-0.6,18-0.6l9.4-11C68.7,15.6,55.5,20.3,51.6,22z"/>
</g>
</svg>
