<svg xmlns="http://www.w3.org/2000/svg" viewBox="0 0 2000 2000"><defs><style>.cls-1{fill:#222331;}.cls-2{fill:#e98a2b;}.cls-3{fill:#eee;}.cls-4{fill:#ffe16e;}.cls-5{fill:#ffc235;}</style></defs><g id="Layer_2" data-name="Layer 2"><g id="Layer_2-2" data-name="Layer 2"><rect class="cls-1" width="2000" height="2000"/><path class="cls-2" d="M1665.21,1349.11a6.47,6.47,0,0,1-.58.89c-126.7,196.38-350.17,319.5-596.23,300.28-250.94-19.3-410.62-179-445.71-221.09s-79-110.56-165-126.35-126.35,19.3-161.44,54.4c-36.86,35.09-63.18,24.57-66.68,1.76-3.51-17.56,7-108.79,122.84-173.73,85.69-47.6,217.52-38.6,242.16-36.84,24.55,66.68,135.1,386,489.58,435.19,7,0,12.29,1.74,17.54,1.74s10.54,1.77,15.79,1.77h66.68c219.1-4.22,369.62-123.09,439-192.87C1643.88,1373.61,1664.57,1349.85,1665.21,1349.11Z"/><path class="cls-3" d="M460.6,1089.61s-27.44-167.55,44.51-383.39c36.85-107,114.06-191.27,179-238.65,56.16-42.11,147.4-56.15,149.16,1.76,0,57.9-52.64,68.43-112.31,207.06-45.62,105.29-21.05,293.05-21.05,293.05s-22.82,11.28-64.93,44.62a401.7,401.7,0,0,0-66.68,71.19S527.78,1082.06,460.6,1089.61Z"/><path class="cls-4" d="M868.35,406.15c14,15.8,22.81,38.61,22.81,63.18,0,49.13-22.81,79-45.63,108.79C826.23,604.44,801.66,636,773.59,701c-14,33.34-21.06,77.21-22.81,122.83,29.83-57.91,84.22-135.12,191.27-186,159.68-75.45,315.86-10.52,315.86-10.52l164.95-193C1168.41,293.85,936.78,376.32,868.35,406.15Z"/><path class="cls-5" d="M1665.23,1349.09c-.5-.14-1-.32-1.63-.51a1.8,1.8,0,0,1-.33-.1L1422.85,1266c-71.93,115.81-242.15,165-391.31,133.37s-231.64-124.61-228.13-193S868.35,1097.54,917.47,1087s56.16-22.81,49.15-42.11c-7-17.54-49.15-56.16-145.65-52.63-129.09,3.27-214,135.84-225.12,154.09-.83,1.35-1.25,2.08-1.25,2.08,24.56,66.68,135.11,386,489.59,435.19,7,0,12.29,1.74,17.54,1.74s10.54,1.77,15.79,1.77h66.68c219.1-4.22,369.62-123.09,439-192.87h0C1644.2,1373.29,1665.23,1349.09,1665.23,1349.09Z"/></g></g></svg>